<svg xmlns="http://www.w3.org/2000/svg" xmlns:xlink="http://www.w3.org/1999/xlink" contentStyleType="text/css" height="915px" preserveAspectRatio="none" style="width:1029px;height:915px;background:#FFFFFF;" version="1.1" viewBox="0 0 1029 915" width="1029px" zoomAndPan="magnify"><defs/><g><line style="stroke:#181818;stroke-width:0.5;stroke-dasharray:5.0,5.0;" x1="61" x2="61" y1="81.4883" y2="834.252"/><line style="stroke:#181818;stroke-width:0.5;stroke-dasharray:5.0,5.0;" x1="357.022" x2="357.022" y1="81.4883" y2="834.252"/><line style="stroke:#181818;stroke-width:0.5;stroke-dasharray:5.0,5.0;" x1="649.4316" x2="649.4316" y1="81.4883" y2="834.252"/><line style="stroke:#181818;stroke-width:0.5;stroke-dasharray:5.0,5.0;" x1="923.1729" x2="923.1729" y1="81.4883" y2="834.252"/><line style="stroke:#181818;stroke-width:0.5;stroke-dasharray:5.0,5.0;" x1="994.8379" x2="994.8379" y1="81.4883" y2="834.252"/><text fill="#000000" font-family="sans-serif" font-size="14" lengthAdjust="spacing" textLength="106.7363" x="5" y="78.5352">Registered User</text><ellipse cx="61.3682" cy="13.5" fill="#E2E2F0" rx="8" ry="8" style="stroke:#181818;stroke-width:0.5;"/><path d="M61.3682,21.5 L61.3682,48.5 M48.3682,29.5 L74.3682,29.5 M61.3682,48.5 L48.3682,63.5 M61.3682,48.5 L74.3682,63.5 " fill="none" style="stroke:#181818;stroke-width:0.5;"/><text fill="#000000" font-family="sans-serif" font-size="14" lengthAdjust="spacing" textLength="106.7363" x="5" y="846.7871">Registered User</text><ellipse cx="61.3682" cy="858.2402" fill="#E2E2F0" rx="8" ry="8" style="stroke:#181818;stroke-width:0.5;"/><path d="M61.3682,866.2402 L61.3682,893.2402 M48.3682,874.2402 L74.3682,874.2402 M61.3682,893.2402 L48.3682,908.2402 M61.3682,893.2402 L74.3682,908.2402 " fill="none" style="stroke:#181818;stroke-width:0.5;"/><rect fill="#E2E2F0" height="30.4883" rx="2.5" ry="2.5" style="stroke:#181818;stroke-width:0.5;" width="123.8672" x="296.022" y="50"/><text fill="#000000" font-family="sans-serif" font-size="14" lengthAdjust="spacing" textLength="109.8672" x="303.022" y="70.5352">Web Application</text><rect fill="#E2E2F0" height="30.4883" rx="2.5" ry="2.5" style="stroke:#181818;stroke-width:0.5;" width="123.8672" x="296.022" y="833.252"/><text fill="#000000" font-family="sans-serif" font-size="14" lengthAdjust="spacing" textLength="109.8672" x="303.022" y="853.7871">Web Application</text><rect fill="#E2E2F0" height="30.4883" rx="2.5" ry="2.5" style="stroke:#181818;stroke-width:0.5;" width="151.7168" x="574.4316" y="50"/><text fill="#000000" font-family="sans-serif" font-size="14" lengthAdjust="spacing" textLength="137.7168" x="581.4316" y="70.5352">Backend Application</text><rect fill="#E2E2F0" height="30.4883" rx="2.5" ry="2.5" style="stroke:#181818;stroke-width:0.5;" width="151.7168" x="574.4316" y="833.252"/><text fill="#000000" font-family="sans-serif" font-size="14" lengthAdjust="spacing" textLength="137.7168" x="581.4316" y="853.7871">Backend Application</text><text fill="#000000" font-family="sans-serif" font-size="14" lengthAdjust="spacing" textLength="62.665" x="889.1729" y="78.5352">Database</text><path d="M905.5054,29 C905.5054,19 923.5054,19 923.5054,19 C923.5054,19 941.5054,19 941.5054,29 L941.5054,55 C941.5054,65 923.5054,65 923.5054,65 C923.5054,65 905.5054,65 905.5054,55 L905.5054,29 " fill="#E2E2F0" style="stroke:#181818;stroke-width:1.5;"/><path d="M905.5054,29 C905.5054,39 923.5054,39 923.5054,39 C923.5054,39 941.5054,39 941.5054,29 " fill="none" style="stroke:#181818;stroke-width:1.5;"/><text fill="#000000" font-family="sans-serif" font-size="14" lengthAdjust="spacing" textLength="62.665" x="889.1729" y="846.7871">Database</text><path d="M905.5054,859.7402 C905.5054,849.7402 923.5054,849.7402 923.5054,849.7402 C923.5054,849.7402 941.5054,849.7402 941.5054,859.7402 L941.5054,885.7402 C941.5054,895.7402 923.5054,895.7402 923.5054,895.7402 C923.5054,895.7402 905.5054,895.7402 905.5054,885.7402 L905.5054,859.7402 " fill="#E2E2F0" style="stroke:#181818;stroke-width:1.5;"/><path d="M905.5054,859.7402 C905.5054,869.7402 923.5054,869.7402 923.5054,869.7402 C923.5054,869.7402 941.5054,869.7402 941.5054,859.7402 " fill="none" style="stroke:#181818;stroke-width:1.5;"/><rect fill="#E2E2F0" height="30.4883" rx="2.5" ry="2.5" style="stroke:#181818;stroke-width:0.5;" width="55.4121" x="967.8379" y="50"/><text fill="#000000" font-family="sans-serif" font-size="14" lengthAdjust="spacing" textLength="41.4121" x="974.8379" y="70.5352">Mailer</text><rect fill="#E2E2F0" height="30.4883" rx="2.5" ry="2.5" style="stroke:#181818;stroke-width:0.5;" width="55.4121" x="967.8379" y="833.252"/><text fill="#000000" font-family="sans-serif" font-size="14" lengthAdjust="spacing" textLength="41.4121" x="974.8379" y="853.7871">Mailer</text><polygon fill="#181818" points="345.9556,108.7988,355.9556,112.7988,345.9556,116.7988,349.9556,112.7988" style="stroke:#181818;stroke-width:1.0;"/><line style="stroke:#181818;stroke-width:1.0;" x1="61.3682" x2="351.9556" y1="112.7988" y2="112.7988"/><text fill="#000000" font-family="sans-serif" font-size="13" lengthAdjust="spacing" textLength="161.0845" x="68.3682" y="108.0566">Initiates booking creation</text><polygon fill="#181818" points="638.29,138.1094,648.29,142.1094,638.29,146.1094,642.29,142.1094" style="stroke:#181818;stroke-width:1.0;"/><line style="stroke:#181818;stroke-width:1.0;" x1="357.9556" x2="644.29" y1="142.1094" y2="142.1094"/><text fill="#000000" font-family="sans-serif" font-size="13" lengthAdjust="spacing" textLength="137.6299" x="364.9556" y="137.3672">Request venue details</text><polygon fill="#181818" points="911.5054,167.4199,921.5054,171.4199,911.5054,175.4199,915.5054,171.4199" style="stroke:#181818;stroke-width:1.0;"/><line style="stroke:#181818;stroke-width:1.0;" x1="650.29" x2="917.5054" y1="171.4199" y2="171.4199"/><text fill="#000000" font-family="sans-serif" font-size="13" lengthAdjust="spacing" textLength="153.772" x="657.29" y="166.6777">Fetch venue with service</text><polygon fill="#181818" points="661.29,196.7305,651.29,200.7305,661.29,204.7305,657.29,200.7305" style="stroke:#181818;stroke-width:1.0;"/><line style="stroke:#181818;stroke-width:1.0;" x1="655.29" x2="922.5054" y1="200.7305" y2="200.7305"/><text fill="#000000" font-family="sans-serif" font-size="13" lengthAdjust="spacing" textLength="161.751" x="667.29" y="195.9883">Return venue with service</text><polygon fill="#181818" points="368.9556,226.041,358.9556,230.041,368.9556,234.041,364.9556,230.041" style="stroke:#181818;stroke-width:1.0;"/><line style="stroke:#181818;stroke-width:1.0;" x1="362.9556" x2="649.29" y1="230.041" y2="230.041"/><text fill="#000000" font-family="sans-serif" font-size="13" lengthAdjust="spacing" textLength="268.3345" x="374.9556" y="225.2988">Return service list, staff, and opening time</text><polygon fill="#181818" points="72.3682,255.3516,62.3682,259.3516,72.3682,263.3516,68.3682,259.3516" style="stroke:#181818;stroke-width:1.0;"/><line style="stroke:#181818;stroke-width:1.0;" x1="66.3682" x2="356.9556" y1="259.3516" y2="259.3516"/><text fill="#000000" font-family="sans-serif" font-size="13" lengthAdjust="spacing" textLength="272.5874" x="78.3682" y="254.6094">Display service list, staff, and opening time</text><polygon fill="#181818" points="345.9556,284.6621,355.9556,288.6621,345.9556,292.6621,349.9556,288.6621" style="stroke:#181818;stroke-width:1.0;"/><line style="stroke:#181818;stroke-width:1.0;" x1="61.3682" x2="351.9556" y1="288.6621" y2="288.6621"/><text fill="#000000" font-family="sans-serif" font-size="13" lengthAdjust="spacing" textLength="91.0825" x="68.3682" y="283.9199">Selects service</text><polygon fill="#181818" points="72.3682,313.9727,62.3682,317.9727,72.3682,321.9727,68.3682,317.9727" style="stroke:#181818;stroke-width:1.0;"/><line style="stroke:#181818;stroke-width:1.0;" x1="66.3682" x2="356.9556" y1="317.9727" y2="317.9727"/><text fill="#000000" font-family="sans-serif" font-size="13" lengthAdjust="spacing" textLength="162.627" x="78.3682" y="313.2305">Update view to show staff</text><polygon fill="#181818" points="345.9556,343.2832,355.9556,347.2832,345.9556,351.2832,349.9556,347.2832" style="stroke:#181818;stroke-width:1.0;"/><line style="stroke:#181818;stroke-width:1.0;" x1="61.3682" x2="351.9556" y1="347.2832" y2="347.2832"/><text fill="#000000" font-family="sans-serif" font-size="13" lengthAdjust="spacing" textLength="75.7339" x="68.3682" y="342.541">Selects staff</text><polygon fill="#181818" points="72.3682,372.5938,62.3682,376.5938,72.3682,380.5938,68.3682,376.5938" style="stroke:#181818;stroke-width:1.0;"/><line style="stroke:#181818;stroke-width:1.0;" x1="66.3682" x2="356.9556" y1="376.5938" y2="376.5938"/><text fill="#000000" font-family="sans-serif" font-size="13" lengthAdjust="spacing" textLength="190.728" x="78.3682" y="371.8516">Update view for selecting date</text><polygon fill="#181818" points="345.9556,401.9043,355.9556,405.9043,345.9556,409.9043,349.9556,405.9043" style="stroke:#181818;stroke-width:1.0;"/><line style="stroke:#181818;stroke-width:1.0;" x1="61.3682" x2="351.9556" y1="405.9043" y2="405.9043"/><text fill="#000000" font-family="sans-serif" font-size="13" lengthAdjust="spacing" textLength="74.6992" x="68.3682" y="401.1621">Picks a date</text><polygon fill="#181818" points="638.29,431.2148,648.29,435.2148,638.29,439.2148,642.29,435.2148" style="stroke:#181818;stroke-width:1.0;"/><line style="stroke:#181818;stroke-width:1.0;" x1="357.9556" x2="644.29" y1="435.2148" y2="435.2148"/><text fill="#000000" font-family="sans-serif" font-size="13" lengthAdjust="spacing" textLength="199.291" x="364.9556" y="430.4727">Request available booking slots</text><polygon fill="#181818" points="911.5054,460.5254,921.5054,464.5254,911.5054,468.5254,915.5054,464.5254" style="stroke:#181818;stroke-width:1.0;"/><line style="stroke:#181818;stroke-width:1.0;" x1="650.29" x2="917.5054" y1="464.5254" y2="464.5254"/><text fill="#000000" font-family="sans-serif" font-size="13" lengthAdjust="spacing" textLength="249.2153" x="657.29" y="459.7832">Get booking slots for the date and staff</text><polygon fill="#181818" points="661.29,489.8359,651.29,493.8359,661.29,497.8359,657.29,493.8359" style="stroke:#181818;stroke-width:1.0;"/><line style="stroke:#181818;stroke-width:1.0;" x1="655.29" x2="922.5054" y1="493.8359" y2="493.8359"/><text fill="#000000" font-family="sans-serif" font-size="13" lengthAdjust="spacing" textLength="134.8306" x="667.29" y="489.0938">Return available slots</text><polygon fill="#181818" points="368.9556,519.1465,358.9556,523.1465,368.9556,527.1465,364.9556,523.1465" style="stroke:#181818;stroke-width:1.0;"/><line style="stroke:#181818;stroke-width:1.0;" x1="362.9556" x2="649.29" y1="523.1465" y2="523.1465"/><text fill="#000000" font-family="sans-serif" font-size="13" lengthAdjust="spacing" textLength="134.8306" x="374.9556" y="518.4043">Return available slots</text><polygon fill="#181818" points="72.3682,548.457,62.3682,552.457,72.3682,556.457,68.3682,552.457" style="stroke:#181818;stroke-width:1.0;"/><line style="stroke:#181818;stroke-width:1.0;" x1="66.3682" x2="356.9556" y1="552.457" y2="552.457"/><text fill="#000000" font-family="sans-serif" font-size="13" lengthAdjust="spacing" textLength="139.0835" x="78.3682" y="547.7148">Display available slots</text><polygon fill="#181818" points="345.9556,577.7676,355.9556,581.7676,345.9556,585.7676,349.9556,581.7676" style="stroke:#181818;stroke-width:1.0;"/><line style="stroke:#181818;stroke-width:1.0;" x1="61.3682" x2="351.9556" y1="581.7676" y2="581.7676"/><text fill="#000000" font-family="sans-serif" font-size="13" lengthAdjust="spacing" textLength="91.2856" x="68.3682" y="577.0254">Picks time slot</text><polygon fill="#181818" points="345.9556,607.0781,355.9556,611.0781,345.9556,615.0781,349.9556,611.0781" style="stroke:#181818;stroke-width:1.0;"/><line style="stroke:#181818;stroke-width:1.0;" x1="61.3682" x2="351.9556" y1="611.0781" y2="611.0781"/><text fill="#000000" font-family="sans-serif" font-size="13" lengthAdjust="spacing" textLength="113.4644" x="68.3682" y="606.3359">Confirms booking</text><polygon fill="#181818" points="638.29,636.3887,648.29,640.3887,638.29,644.3887,642.29,640.3887" style="stroke:#181818;stroke-width:1.0;"/><line style="stroke:#181818;stroke-width:1.0;" x1="357.9556" x2="644.29" y1="640.3887" y2="640.3887"/><text fill="#000000" font-family="sans-serif" font-size="13" lengthAdjust="spacing" textLength="148.2939" x="364.9556" y="635.6465">Create booking request</text><polygon fill="#181818" points="911.5054,665.6992,921.5054,669.6992,911.5054,673.6992,915.5054,669.6992" style="stroke:#181818;stroke-width:1.0;"/><line style="stroke:#181818;stroke-width:1.0;" x1="650.29" x2="917.5054" y1="669.6992" y2="669.6992"/><text fill="#000000" font-family="sans-serif" font-size="13" lengthAdjust="spacing" textLength="173.3228" x="657.29" y="664.957">Create booking in database</text><polygon fill="#181818" points="661.29,695.0098,651.29,699.0098,661.29,703.0098,657.29,699.0098" style="stroke:#181818;stroke-width:1.0;"/><line style="stroke:#181818;stroke-width:1.0;" x1="655.29" x2="922.5054" y1="699.0098" y2="699.0098"/><text fill="#000000" font-family="sans-serif" font-size="13" lengthAdjust="spacing" textLength="191.2485" x="667.29" y="694.2676">Return persisted booking data</text><polygon fill="#181818" points="983.5439,724.3203,993.5439,728.3203,983.5439,732.3203,987.5439,728.3203" style="stroke:#181818;stroke-width:1.0;"/><line style="stroke:#181818;stroke-width:1.0;" x1="650.29" x2="989.5439" y1="728.3203" y2="728.3203"/><text fill="#000000" font-family="sans-serif" font-size="13" lengthAdjust="spacing" textLength="209.1489" x="657.29" y="723.5781">Send booking confirmation email</text><polygon fill="#181818" points="661.29,753.6309,651.29,757.6309,661.29,761.6309,657.29,757.6309" style="stroke:#181818;stroke-width:1.0;"/><line style="stroke:#181818;stroke-width:1.0;" x1="655.29" x2="994.5439" y1="757.6309" y2="757.6309"/><text fill="#000000" font-family="sans-serif" font-size="13" lengthAdjust="spacing" textLength="113.8071" x="667.29" y="752.8887">Confirmation sent</text><polygon fill="#181818" points="368.9556,782.9414,358.9556,786.9414,368.9556,790.9414,364.9556,786.9414" style="stroke:#181818;stroke-width:1.0;"/><line style="stroke:#181818;stroke-width:1.0;" x1="362.9556" x2="649.29" y1="786.9414" y2="786.9414"/><text fill="#000000" font-family="sans-serif" font-size="13" lengthAdjust="spacing" textLength="175.5889" x="374.9556" y="782.1992">Return booking information</text><polygon fill="#181818" points="72.3682,812.252,62.3682,816.252,72.3682,820.252,68.3682,816.252" style="stroke:#181818;stroke-width:1.0;"/><line style="stroke:#181818;stroke-width:1.0;" x1="66.3682" x2="356.9556" y1="816.252" y2="816.252"/><text fill="#000000" font-family="sans-serif" font-size="13" lengthAdjust="spacing" textLength="213.7256" x="78.3682" y="811.5098">Display booking success message</text></g></svg>