<svg xmlns="http://www.w3.org/2000/svg" xmlns:xlink="http://www.w3.org/1999/xlink" contentStyleType="text/css" height="1215px" preserveAspectRatio="none" style="width:625px;height:1215px;background:#FFFFFF;" version="1.1" viewBox="0 0 625 1215" width="625px" zoomAndPan="magnify"><defs/><g><!--cluster P?ihl??en? u?ivatel--><g id="cluster_P&#345;ihl&#225;&#353;en&#253; u&#382;ivatel"><rect fill="none" height="349" rx="2.5" ry="2.5" style="stroke:#181818;stroke-width:1.0;" width="274.56" x="7" y="351"/><text fill="#000000" font-family="sans-serif" font-size="14" font-weight="bold" lengthAdjust="spacing" textLength="136.5547" x="76.0027" y="366.5352">P&#345;ihl&#225;&#353;en&#253; u&#382;ivatel</text></g><!--cluster Administra?n? rozhran?--><g id="cluster_Administra&#269;n&#237; rozhran&#237;"><path d="M312.06,6 L479.6313,6 A3.75,3.75 0 0 1 482.1313,8.5 L489.1313,28.4883 L616.29,28.4883 A2.5,2.5 0 0 1 618.79,30.9883 L618.79,1205.5 A2.5,2.5 0 0 1 616.29,1208 L312.06,1208 A2.5,2.5 0 0 1 309.56,1205.5 L309.56,8.5 A2.5,2.5 0 0 1 312.06,6 " fill="none" style="stroke:#000000;stroke-width:1.5;"/><line style="stroke:#000000;stroke-width:1.5;" x1="309.56" x2="489.1313" y1="28.4883" y2="28.4883"/><text fill="#000000" font-family="sans-serif" font-size="14" font-weight="bold" lengthAdjust="spacing" textLength="166.5713" x="313.56" y="21.5352">Administra&#269;n&#237; rozhran&#237;</text></g><!--entity AdminServiceProvider--><g id="elem_AdminServiceProvider"><ellipse cx="144.2798" cy="394.26" fill="#F1F1F1" rx="8" ry="8" style="stroke:#181818;stroke-width:0.5;"/><path d="M144.2798,402.26 L144.2798,429.26 M131.2798,410.26 L157.2798,410.26 M144.2798,429.26 L131.2798,444.26 M144.2798,429.26 L157.2798,444.26 " fill="none" style="stroke:#181818;stroke-width:0.5;"/><text fill="#000000" font-family="sans-serif" font-size="14" lengthAdjust="spacing" textLength="242.5596" x="23" y="459.2952">Poskytovatel slu&#382;eb - administr&#225;tor</text></g><!--entity EditorServiceProvider--><g id="elem_EditorServiceProvider"><ellipse cx="144.2846" cy="505.26" fill="#F1F1F1" rx="8" ry="8" style="stroke:#181818;stroke-width:0.5;"/><path d="M144.2846,513.26 L144.2846,540.26 M131.2846,521.26 L157.2846,521.26 M144.2846,540.26 L131.2846,555.26 M144.2846,540.26 L157.2846,555.26 " fill="none" style="stroke:#181818;stroke-width:0.5;"/><text fill="#000000" font-family="sans-serif" font-size="14" lengthAdjust="spacing" textLength="190.9893" x="48.79" y="570.2952">Poskytovatel slu&#382;eb - editor</text></g><!--entity ReaderServiceProvider--><g id="elem_ReaderServiceProvider"><ellipse cx="144.281" cy="616.26" fill="#F1F1F1" rx="8" ry="8" style="stroke:#181818;stroke-width:0.5;"/><path d="M144.281,624.26 L144.281,651.26 M131.281,632.26 L157.281,632.26 M144.281,651.26 L131.281,666.26 M144.281,651.26 L157.281,666.26 " fill="none" style="stroke:#181818;stroke-width:0.5;"/><text fill="#000000" font-family="sans-serif" font-size="14" lengthAdjust="spacing" textLength="193.1221" x="47.72" y="681.2952">Poskytovatel slu&#382;eb - &#269;ten&#225;&#345;</text></g><g id="elem_UC_PS1"><ellipse cx="464.1693" cy="1105.9979" fill="#F1F1F1" rx="73.8393" ry="17.1679" style="stroke:#181818;stroke-width:0.5;"/><text fill="#000000" font-family="sans-serif" font-size="14" lengthAdjust="spacing" textLength="103.2227" x="412.558" y="1109.2889">PS1: Registrace</text></g><g id="elem_UC_PS2"><ellipse cx="464.1715" cy="1175.0003" fill="#F1F1F1" rx="72.0015" ry="16.8003" style="stroke:#181818;stroke-width:0.5;"/><text fill="#000000" font-family="sans-serif" font-size="14" lengthAdjust="spacing" textLength="98.6426" x="414.0908" y="1178.4951">PS2: P&#345;ihl&#225;&#353;en&#237;</text></g><g id="elem_UC_PS4"><ellipse cx="464.1734" cy="215.9987" fill="#F1F1F1" rx="97.7934" ry="21.9587" style="stroke:#181818;stroke-width:0.5;"/><text fill="#000000" font-family="sans-serif" font-size="14" lengthAdjust="spacing" textLength="158.7236" x="384.8116" y="219.2897">PS4: Vytvo&#345;en&#237; pobo&#269;ky</text></g><g id="elem_UC_PS5"><ellipse cx="464.1673" cy="138.9955" fill="#F1F1F1" rx="90.2773" ry="20.4555" style="stroke:#181818;stroke-width:0.5;"/><text fill="#000000" font-family="sans-serif" font-size="14" lengthAdjust="spacing" textLength="141.8594" x="393.2376" y="142.2865">PS5: &#218;prava pobo&#269;ky</text></g><g id="elem_UC_PS6"><ellipse cx="464.1734" cy="62.0027" fill="#F1F1F1" rx="94.6634" ry="21.3327" style="stroke:#181818;stroke-width:0.5;"/><text fill="#000000" font-family="sans-serif" font-size="14" lengthAdjust="spacing" textLength="151.7441" x="388.3013" y="65.2937">PS6: Smaz&#225;n&#237; pobo&#269;ky</text></g><g id="elem_UC_PS7"><ellipse cx="464.1725" cy="933.9965" fill="#F1F1F1" rx="112.2325" ry="24.8465" style="stroke:#181818;stroke-width:0.5;"/><text fill="#000000" font-family="sans-serif" font-size="14" lengthAdjust="spacing" textLength="190.3125" x="369.0162" y="937.2875">PS7: Vytvo&#345;en&#237; zam&#283;stnance</text></g><g id="elem_UC_PS8"><ellipse cx="464.1737" cy="851.0047" fill="#F1F1F1" rx="104.4737" ry="23.2947" style="stroke:#181818;stroke-width:0.5;"/><text fill="#000000" font-family="sans-serif" font-size="14" lengthAdjust="spacing" textLength="173.4482" x="377.4496" y="854.2958">PS8: &#218;prava zam&#283;stnance</text></g><g id="elem_UC_PS9"><ellipse cx="464.1689" cy="769.0018" fill="#F1F1F1" rx="109.0089" ry="24.2018" style="stroke:#181818;stroke-width:0.5;"/><text fill="#000000" font-family="sans-serif" font-size="14" lengthAdjust="spacing" textLength="183.333" x="372.5024" y="772.2928">PS9: Smaz&#225;n&#237; zam&#283;stnance</text></g><g id="elem_UC_PS10"><ellipse cx="464.1712" cy="688.0042" fill="#F1F1F1" rx="95.7212" ry="21.5442" style="stroke:#181818;stroke-width:0.5;"/><text fill="#000000" font-family="sans-serif" font-size="14" lengthAdjust="spacing" textLength="154.1094" x="387.1165" y="691.2953">PS10: Vytvo&#345;en&#237; slu&#382;by</text></g><g id="elem_UC_PS11"><ellipse cx="464.1706" cy="611.0001" fill="#F1F1F1" rx="88.2506" ry="20.0501" style="stroke:#181818;stroke-width:0.5;"/><text fill="#000000" font-family="sans-serif" font-size="14" lengthAdjust="spacing" textLength="137.2451" x="395.5481" y="614.2911">PS11: &#218;prava slu&#382;by</text></g><g id="elem_UC_PS12"><ellipse cx="464.1687" cy="535.0017" fill="#F1F1F1" rx="92.6087" ry="20.9217" style="stroke:#181818;stroke-width:0.5;"/><text fill="#000000" font-family="sans-serif" font-size="14" lengthAdjust="spacing" textLength="147.1299" x="390.6038" y="538.2928">PS12: Smaz&#225;n&#237; slu&#382;by</text></g><g id="elem_UC_PS14"><ellipse cx="464.1663" cy="455.9973" fill="#F1F1F1" rx="105.2363" ry="23.4473" style="stroke:#181818;stroke-width:0.5;"/><text fill="#000000" font-family="sans-serif" font-size="14" lengthAdjust="spacing" textLength="175.1162" x="376.6082" y="459.2883">PS14: Vytvo&#345;en&#237; rezervace</text></g><g id="elem_UC_PS15"><ellipse cx="464.1711" cy="375.9962" fill="#F1F1F1" rx="97.5811" ry="21.9162" style="stroke:#181818;stroke-width:0.5;"/><text fill="#000000" font-family="sans-serif" font-size="14" lengthAdjust="spacing" textLength="158.252" x="385.0451" y="379.2872">PS15: &#218;prava rezervace</text></g><g id="elem_UC_PS16"><ellipse cx="464.1728" cy="296.0006" fill="#F1F1F1" rx="102.0528" ry="22.8106" style="stroke:#181818;stroke-width:0.5;"/><text fill="#000000" font-family="sans-serif" font-size="14" lengthAdjust="spacing" textLength="168.1367" x="380.1044" y="299.2916">PS16: Smaz&#225;n&#237; rezervace</text></g><g id="elem_UC_PS13"><ellipse cx="464.1737" cy="1024.0027" fill="#F1F1F1" rx="138.6137" ry="30.1227" style="stroke:#181818;stroke-width:0.5;"/><text fill="#000000" font-family="sans-serif" font-size="14" lengthAdjust="spacing" textLength="246.3945" x="340.9764" y="1027.2938">PS13: Zobrazen&#237; kalend&#225;&#345;e rezervac&#237;</text></g><!--entity UnregisteredServiceProvider--><g id="elem_UnregisteredServiceProvider"><ellipse cx="144.284" cy="1111.26" fill="#F1F1F1" rx="8" ry="8" style="stroke:#181818;stroke-width:0.5;"/><path d="M144.284,1119.26 L144.284,1146.26 M131.284,1127.26 L157.284,1127.26 M144.284,1146.26 L131.284,1161.26 M144.284,1146.26 L157.284,1161.26 " fill="none" style="stroke:#181818;stroke-width:0.5;"/><text fill="#000000" font-family="sans-serif" font-size="14" lengthAdjust="spacing" textLength="237.248" x="25.66" y="1176.2952">Poskytovatel slu&#382;eb - nep&#345;ihl&#225;&#353;en&#253;</text></g><!--link UnregisteredServiceProvider to UC_PS1--><g id="link_UnregisteredServiceProvider_UC_PS1"><path d="M263.2,1128.02 C308.26,1123.06 352.0762,1118.2378 390.6962,1113.9778 " fill="none" id="UnregisteredServiceProvider-to-UC_PS1" style="stroke:#181818;stroke-width:1.0;"/><polygon fill="#181818" points="396.66,1113.32,387.2757,1110.3309,391.6901,1113.8682,388.1528,1118.2827,396.66,1113.32" style="stroke:#181818;stroke-width:1.0;"/></g><!--link UnregisteredServiceProvider to UC_PS2--><g id="link_UnregisteredServiceProvider_UC_PS2"><path d="M263.2,1153.61 C308.79,1158.49 353.244,1163.242 392.054,1167.392 " fill="none" id="UnregisteredServiceProvider-to-UC_PS2" style="stroke:#181818;stroke-width:1.0;"/><polygon fill="#181818" points="398.02,1168.03,389.4963,1163.0957,393.0483,1167.4984,388.6457,1171.0504,398.02,1168.03" style="stroke:#181818;stroke-width:1.0;"/></g><!--link ReaderServiceProvider to UC_PS13--><g id="link_ReaderServiceProvider_UC_PS13"><path d="M152.79,684.59 C168.21,753.43 209.99,897.51 301.56,976 C316.67,988.95 329.5213,996.3593 348.5213,1003.2693 " fill="none" id="ReaderServiceProvider-to-UC_PS13" style="stroke:#181818;stroke-width:1.0;"/><polygon fill="#181818" points="354.16,1005.32,347.0691,998.4848,349.4611,1003.6111,344.3349,1006.0031,354.16,1005.32" style="stroke:#181818;stroke-width:1.0;"/></g><!--link EditorServiceProvider to UC_PS4--><g id="link_EditorServiceProvider_UC_PS4"><path d="M240.04,516.55 C259.27,508.45 277.32,496.79 289.56,480 C318.93,439.72 269.8,294.42 301.56,256 C317.95,236.17 336.6324,226.6439 361.6524,220.8939 " fill="none" id="EditorServiceProvider-to-UC_PS4" style="stroke:#181818;stroke-width:1.0;"/><polygon fill="#181818" points="367.5,219.55,357.8327,217.6674,362.627,220.6699,359.6246,225.4642,367.5,219.55" style="stroke:#181818;stroke-width:1.0;"/></g><!--link EditorServiceProvider to UC_PS5--><g id="link_EditorServiceProvider_UC_PS5"><path d="M240.21,516.68 C259.43,508.57 277.44,496.87 289.56,480 C309.22,452.64 280.12,202.99 301.56,177 C319.26,155.54 340.6783,145.9417 367.8483,140.9617 " fill="none" id="EditorServiceProvider-to-UC_PS5" style="stroke:#181818;stroke-width:1.0;"/><polygon fill="#181818" points="373.75,139.88,364.1763,137.5681,368.8319,140.7814,365.6186,145.437,373.75,139.88" style="stroke:#181818;stroke-width:1.0;"/></g><!--link EditorServiceProvider to UC_PS6--><g id="link_EditorServiceProvider_UC_PS6"><path d="M239.94,516.9 C259.29,508.79 277.43,497.03 289.56,480 C314.01,445.69 274.97,133.69 301.56,101 C318.32,80.4 338.0272,70.799 363.9272,65.379 " fill="none" id="EditorServiceProvider-to-UC_PS6" style="stroke:#181818;stroke-width:1.0;"/><polygon fill="#181818" points="369.8,64.15,360.1715,62.0783,364.906,65.1741,361.8101,69.9087,369.8,64.15" style="stroke:#181818;stroke-width:1.0;"/></g><!--link EditorServiceProvider to UC_PS7--><g id="link_EditorServiceProvider_UC_PS7"><path d="M240.21,553.32 C259.43,561.43 277.44,573.13 289.56,590 C309.16,617.27 280.49,865.85 301.56,892 C315.47,909.27 329.7632,918.2125 351.0132,924.7225 " fill="none" id="EditorServiceProvider-to-UC_PS7" style="stroke:#181818;stroke-width:1.0;"/><polygon fill="#181818" points="356.75,926.48,349.3164,920.0192,351.9693,925.0154,346.9731,927.6683,356.75,926.48" style="stroke:#181818;stroke-width:1.0;"/></g><!--link EditorServiceProvider to UC_PS8--><g id="link_EditorServiceProvider_UC_PS8"><path d="M240.03,553.45 C259.26,561.56 277.31,573.22 289.56,590 C318.55,629.73 270.21,773.11 301.56,811 C316.67,829.26 332.879,838.3976 355.819,844.4576 " fill="none" id="EditorServiceProvider-to-UC_PS8" style="stroke:#181818;stroke-width:1.0;"/><polygon fill="#181818" points="361.62,845.99,353.9401,839.824,356.7858,844.713,351.8969,847.5587,361.62,845.99" style="stroke:#181818;stroke-width:1.0;"/></g><!--link EditorServiceProvider to UC_PS9--><g id="link_EditorServiceProvider_UC_PS9"><path d="M240,553.91 C259.11,561.99 277.12,573.53 289.56,590 C307.98,614.38 281.83,703.66 301.56,727 C316.44,744.6 331.9057,753.6549 354.0957,760.0649 " fill="none" id="EditorServiceProvider-to-UC_PS9" style="stroke:#181818;stroke-width:1.0;"/><polygon fill="#181818" points="359.86,761.73,352.3236,755.3894,355.0564,760.3424,350.1034,763.0752,359.86,761.73" style="stroke:#181818;stroke-width:1.0;"/></g><!--link EditorServiceProvider to UC_PS10--><g id="link_EditorServiceProvider_UC_PS10"><path d="M240.16,555.61 C258.78,563.6 276.55,574.67 289.56,590 C306.87,610.4 282.98,629.74 301.56,649 C319.59,667.7 339.0616,676.7741 364.3316,682.3641 " fill="none" id="EditorServiceProvider-to-UC_PS10" style="stroke:#181818;stroke-width:1.0;"/><polygon fill="#181818" points="370.19,683.66,362.2664,677.8105,365.308,682.5801,360.5385,685.6217,370.19,683.66" style="stroke:#181818;stroke-width:1.0;"/></g><!--link EditorServiceProvider to UC_PS11--><g id="link_EditorServiceProvider_UC_PS11"><path d="M239.88,558.12 C260.22,563.06 281.6,568.23 301.56,573 C334.5,580.88 365.4079,588.1626 395.5279,595.2126 " fill="none" id="EditorServiceProvider-to-UC_PS11" style="stroke:#181818;stroke-width:1.0;"/><polygon fill="#181818" points="401.37,596.58,393.5185,590.6341,396.5016,595.4405,391.6952,598.4236,401.37,596.58" style="stroke:#181818;stroke-width:1.0;"/></g><!--link EditorServiceProvider to UC_PS12--><g id="link_EditorServiceProvider_UC_PS12"><path d="M240.23,535 C281.67,535 324.07,535 365.17,535 " fill="none" id="EditorServiceProvider-to-UC_PS12" style="stroke:#181818;stroke-width:1.0;"/><polygon fill="#181818" points="371.17,535,362.17,531,366.17,535,362.17,539,371.17,535" style="stroke:#181818;stroke-width:1.0;"/></g><!--link EditorServiceProvider to UC_PS14--><g id="link_EditorServiceProvider_UC_PS14"><path d="M240.23,511.4 C289.08,499.26 341.7871,486.167 386.6171,475.027 " fill="none" id="EditorServiceProvider-to-UC_PS14" style="stroke:#181818;stroke-width:1.0;"/><polygon fill="#181818" points="392.44,473.58,382.741,471.8685,387.5876,474.7858,384.6703,479.6324,392.44,473.58" style="stroke:#181818;stroke-width:1.0;"/></g><!--link EditorServiceProvider to UC_PS15--><g id="link_EditorServiceProvider_UC_PS15"><path d="M239.99,514.72 C258.74,506.71 276.61,495.55 289.56,480 C308.36,457.43 281.36,436.33 301.56,415 C319.03,396.56 337.732,387.5319 362.442,381.8619 " fill="none" id="EditorServiceProvider-to-UC_PS15" style="stroke:#181818;stroke-width:1.0;"/><polygon fill="#181818" points="368.29,380.52,358.6234,378.6342,363.4167,381.6382,360.4126,386.4315,368.29,380.52" style="stroke:#181818;stroke-width:1.0;"/></g><!--link EditorServiceProvider to UC_PS16--><g id="link_EditorServiceProvider_UC_PS16"><path d="M240.05,516.12 C259.15,508.04 277.15,496.49 289.56,480 C308.74,454.52 280.94,361.33 301.56,337 C317.47,318.23 334.8161,308.8827 358.6561,302.8027 " fill="none" id="EditorServiceProvider-to-UC_PS16" style="stroke:#181818;stroke-width:1.0;"/><polygon fill="#181818" points="364.47,301.32,354.7607,299.6682,359.6251,302.5556,356.7376,307.42,364.47,301.32" style="stroke:#181818;stroke-width:1.0;"/></g><!--reverse link ReaderServiceProvider to EditorServiceProvider--><g id="link_ReaderServiceProvider_EditorServiceProvider"><path d="M144.28,589.41 C144.28,578.1 144.28,584.78 144.28,573.47 " fill="none" id="ReaderServiceProvider-backto-EditorServiceProvider" style="stroke:#181818;stroke-width:1.0;"/><polygon fill="none" points="144.28,607.41,150.28,589.41,138.28,589.41,144.28,607.41" style="stroke:#181818;stroke-width:1.0;"/></g><!--reverse link EditorServiceProvider to AdminServiceProvider--><g id="link_EditorServiceProvider_AdminServiceProvider"><path d="M144.28,478.41 C144.28,467.1 144.28,473.78 144.28,462.47 " fill="none" id="EditorServiceProvider-backto-AdminServiceProvider" style="stroke:#181818;stroke-width:1.0;"/><polygon fill="none" points="144.28,496.41,150.28,478.41,138.28,478.41,144.28,496.41" style="stroke:#181818;stroke-width:1.0;"/></g></g></svg>