<svg xmlns="http://www.w3.org/2000/svg" xmlns:xlink="http://www.w3.org/1999/xlink" contentStyleType="text/css" height="807px" preserveAspectRatio="none" style="width:684px;height:807px;background:#FFFFFF;" version="1.1" viewBox="0 0 684 807" width="684px" zoomAndPan="magnify"><defs/><g><!--cluster Platforma--><g id="cluster_Platforma"><path d="M205.68,6 L276.639,6 A3.75,3.75 0 0 1 279.139,8.5 L286.139,28.4883 L496.6,28.4883 A2.5,2.5 0 0 1 499.1,30.9883 L499.1,797.5 A2.5,2.5 0 0 1 496.6,800 L205.68,800 A2.5,2.5 0 0 1 203.18,797.5 L203.18,8.5 A2.5,2.5 0 0 1 205.68,6 " fill="none" style="stroke:#000000;stroke-width:1.5;"/><line style="stroke:#000000;stroke-width:1.5;" x1="203.18" x2="286.139" y1="28.4883" y2="28.4883"/><text fill="#000000" font-family="sans-serif" font-size="14" font-weight="bold" lengthAdjust="spacing" textLength="69.959" x="207.18" y="21.5352">Platforma</text></g><g id="elem_UC_NZ1"><ellipse cx="351.1392" cy="755.0018" fill="#F1F1F1" rx="131.9592" ry="28.7918" style="stroke:#181818;stroke-width:0.5;"/><text fill="#000000" font-family="sans-serif" font-size="14" lengthAdjust="spacing" textLength="232.3877" x="234.9454" y="758.2929">NZ1: Zobrazen&#237; seznamu pobo&#269;ek</text></g><g id="elem_UC_NZ2"><ellipse cx="351.139" cy="667.0018" fill="#F1F1F1" rx="107.559" ry="23.9118" style="stroke:#181818;stroke-width:0.5;"/><text fill="#000000" font-family="sans-serif" font-size="14" lengthAdjust="spacing" textLength="180.1816" x="261.0482" y="670.2928">NZ2: Vyhled&#225;v&#225;n&#237; pobo&#269;ek</text></g><g id="elem_UC_NZ3"><ellipse cx="351.1418" cy="581.0004" fill="#F1F1F1" rx="124.7518" ry="27.3504" style="stroke:#181818;stroke-width:0.5;"/><text fill="#000000" font-family="sans-serif" font-size="14" lengthAdjust="spacing" textLength="217.123" x="242.5802" y="584.2914">NZ3: Zobrazen&#237; detailu pobo&#269;ky</text></g><g id="elem_UC_NZ4"><ellipse cx="351.141" cy="500.9962" fill="#F1F1F1" rx="75.281" ry="17.4562" style="stroke:#181818;stroke-width:0.5;"/><text fill="#000000" font-family="sans-serif" font-size="14" lengthAdjust="spacing" textLength="106.75" x="297.766" y="504.2872">NZ4: Registrace</text></g><g id="elem_UC_PZ1"><ellipse cx="351.1372" cy="432.0034" fill="#F1F1F1" rx="72.3672" ry="16.8734" style="stroke:#181818;stroke-width:0.5;"/><text fill="#000000" font-family="sans-serif" font-size="14" lengthAdjust="spacing" textLength="99.5654" x="300.7739" y="435.4516">PZ1: P&#345;ihl&#225;&#353;en&#237;</text></g><g id="elem_UC_PZ2"><ellipse cx="351.138" cy="362.9976" fill="#F1F1F1" rx="73.238" ry="17.0476" style="stroke:#181818;stroke-width:0.5;"/><text fill="#000000" font-family="sans-serif" font-size="14" lengthAdjust="spacing" textLength="101.7393" x="300.1017" y="366.3346">PZ2: Odhl&#225;&#353;en&#237;</text></g><g id="elem_UC_PZ3"><ellipse cx="351.141" cy="288.0042" fill="#F1F1F1" rx="101.621" ry="22.7242" style="stroke:#181818;stroke-width:0.5;"/><text fill="#000000" font-family="sans-serif" font-size="14" lengthAdjust="spacing" textLength="167.1865" x="267.5477" y="291.2952">PZ3: Vytvo&#345;en&#237; rezervace</text></g><g id="elem_UC_PZ4"><ellipse cx="351.1386" cy="208.9977" fill="#F1F1F1" rx="95.6386" ry="21.5277" style="stroke:#181818;stroke-width:0.5;"/><text fill="#000000" font-family="sans-serif" font-size="14" lengthAdjust="spacing" textLength="153.9248" x="274.1762" y="212.2887">PZ4: Zru&#353;en&#237; rezervace</text></g><g id="elem_UC_PZ5"><ellipse cx="351.1425" cy="133.0045" fill="#F1F1F1" rx="83.2225" ry="19.0445" style="stroke:#181818;stroke-width:0.5;"/><text fill="#000000" font-family="sans-serif" font-size="14" lengthAdjust="spacing" textLength="125.6445" x="288.3202" y="136.2955">PZ5: Zm&#283;na jm&#233;na</text></g><g id="elem_UC_PZ6"><ellipse cx="351.1434" cy="60.0047" fill="#F1F1F1" rx="84.8734" ry="19.3747" style="stroke:#181818;stroke-width:0.5;"/><text fill="#000000" font-family="sans-serif" font-size="14" lengthAdjust="spacing" textLength="129.4795" x="286.4037" y="63.2957">PZ6: Zm&#283;na emailu</text></g><!--entity UnregisteredCustomer--><g id="elem_UnregisteredCustomer"><ellipse cx="82.5898" cy="594.26" fill="#F1F1F1" rx="8" ry="8" style="stroke:#181818;stroke-width:0.5;"/><path d="M82.5898,602.26 L82.5898,629.26 M69.5898,610.26 L95.5898,610.26 M82.5898,629.26 L69.5898,644.26 M82.5898,629.26 L95.5898,644.26 " fill="none" style="stroke:#181818;stroke-width:0.5;"/><text fill="#000000" font-family="sans-serif" font-size="14" lengthAdjust="spacing" textLength="153.1797" x="6" y="659.2952">Nep&#345;ihl&#225;&#353;en&#253; z&#225;kazn&#237;k</text></g><!--entity RegisteredCustomer--><g id="elem_RegisteredCustomer"><ellipse cx="610.0819" cy="333.26" fill="#F1F1F1" rx="8" ry="8" style="stroke:#181818;stroke-width:0.5;"/><path d="M610.0819,341.26 L610.0819,368.26 M597.0819,349.26 L623.0819,349.26 M610.0819,368.26 L597.0819,383.26 M610.0819,368.26 L623.0819,383.26 " fill="none" style="stroke:#181818;stroke-width:0.5;"/><text fill="#000000" font-family="sans-serif" font-size="14" lengthAdjust="spacing" textLength="133.9639" x="543.1" y="398.2952">P&#345;ihl&#225;&#353;en&#253; z&#225;kazn&#237;k</text></g><!--link UnregisteredCustomer to UC_NZ1--><g id="link_UnregisteredCustomer_UC_NZ1"><path d="M127.34,662.59 C147.01,678.4 171.18,695.81 195.18,708 C215.61,718.37 233.0076,725.138 255.0376,731.948 " fill="none" id="UnregisteredCustomer-to-UC_NZ1" style="stroke:#181818;stroke-width:1.0;"/><polygon fill="#181818" points="260.77,733.72,253.3528,727.2404,255.993,732.2433,250.9901,734.8836,260.77,733.72" style="stroke:#181818;stroke-width:1.0;"/></g><!--link UnregisteredCustomer to UC_NZ2--><g id="link_UnregisteredCustomer_UC_NZ2"><path d="M159.62,636.26 C191.93,641.48 223.8668,646.6229 257.2868,652.0229 " fill="none" id="UnregisteredCustomer-to-UC_NZ2" style="stroke:#181818;stroke-width:1.0;"/><polygon fill="#181818" points="263.21,652.98,254.9633,647.5956,258.274,652.1824,253.6872,655.4932,263.21,652.98" style="stroke:#181818;stroke-width:1.0;"/></g><!--link UnregisteredCustomer to UC_NZ3--><g id="link_UnregisteredCustomer_UC_NZ3"><path d="M159.62,611.74 C187.62,607.22 213.8665,602.9851 243.6965,598.1751 " fill="none" id="UnregisteredCustomer-to-UC_NZ3" style="stroke:#181818;stroke-width:1.0;"/><polygon fill="#181818" points="249.62,597.22,240.098,594.7037,244.6838,598.016,241.3715,602.6017,249.62,597.22" style="stroke:#181818;stroke-width:1.0;"/></g><!--link UnregisteredCustomer to UC_NZ4--><g id="link_UnregisteredCustomer_UC_NZ4"><path d="M123.51,585.33 C143.58,567.87 169.12,548.42 195.18,536 C222.81,522.82 249.7192,515.5767 278.0092,510.3667 " fill="none" id="UnregisteredCustomer-to-UC_NZ4" style="stroke:#181818;stroke-width:1.0;"/><polygon fill="#181818" points="283.91,509.28,274.3344,506.9762,278.9927,510.1856,275.7833,514.8439,283.91,509.28" style="stroke:#181818;stroke-width:1.0;"/></g><!--reverse link UC_NZ1 to RegisteredCustomer--><g id="link_UC_NZ1_RegisteredCustomer"><path d="M464.3114,735.8295 C482.2314,728.9495 493.73,721.47 507.1,708 C591.37,623.13 606.63,472.18 608.97,401.5 " fill="none" id="UC_NZ1-backto-RegisteredCustomer" style="stroke:#181818;stroke-width:1.0;"/><polygon fill="#181818" points="458.71,737.98,468.5457,738.4885,463.3778,736.1879,465.6784,731.02,458.71,737.98" style="stroke:#181818;stroke-width:1.0;"/></g><!--reverse link UC_NZ2 to RegisteredCustomer--><g id="link_UC_NZ2_RegisteredCustomer"><path d="M453.7964,654.7821 C475.1864,648.6321 490.61,640.75 507.1,626 C573.53,566.58 597.05,458.72 605.09,401.33 " fill="none" id="UC_NZ2-backto-RegisteredCustomer" style="stroke:#181818;stroke-width:1.0;"/><polygon fill="#181818" points="448.03,656.44,457.7849,657.7974,452.8353,655.0584,455.5743,650.1088,448.03,656.44" style="stroke:#181818;stroke-width:1.0;"/></g><!--reverse link UC_NZ3 to RegisteredCustomer--><g id="link_UC_NZ3_RegisteredCustomer"><path d="M456.6206,562.5184 C476.5706,555.9684 490.73,548.72 507.1,536 C551.84,501.25 580.87,440.91 596.11,401.47 " fill="none" id="UC_NZ3-backto-RegisteredCustomer" style="stroke:#181818;stroke-width:1.0;"/><polygon fill="#181818" points="450.92,564.39,460.7187,565.383,455.6705,562.8303,458.2232,557.7821,450.92,564.39" style="stroke:#181818;stroke-width:1.0;"/></g><!--reverse link UC_PZ1 to RegisteredCustomer--><g id="link_UC_PZ1_RegisteredCustomer"><path d="M413.9787,420.1297 C443.6087,414.0797 474.61,407.11 507.1,398 C518.72,394.74 530.96,390.9 542.77,386.98 " fill="none" id="UC_PZ1-backto-RegisteredCustomer" style="stroke:#181818;stroke-width:1.0;"/><polygon fill="#181818" points="408.1,421.33,417.7183,423.4486,412.9989,420.3297,416.1178,415.6103,408.1,421.33" style="stroke:#181818;stroke-width:1.0;"/></g><!--reverse link UC_PZ2 to RegisteredCustomer--><g id="link_UC_PZ2_RegisteredCustomer"><path d="M430.74,363 C467.84,363 506.66,363 542.81,363 " fill="none" id="UC_PZ2-backto-RegisteredCustomer" style="stroke:#181818;stroke-width:1.0;"/><polygon fill="#181818" points="424.74,363,433.74,367,429.74,363,433.74,359,424.74,363" style="stroke:#181818;stroke-width:1.0;"/></g><!--reverse link UC_PZ3 to RegisteredCustomer--><g id="link_UC_PZ3_RegisteredCustomer"><path d="M427.318,306.1464 C454.178,312.9164 479.29,319.65 507.1,328 C518.66,331.47 530.87,335.41 542.67,339.37 " fill="none" id="UC_PZ3-backto-RegisteredCustomer" style="stroke:#181818;stroke-width:1.0;"/><polygon fill="#181818" points="421.5,304.68,429.2494,310.7583,426.3484,305.902,431.2047,303.0009,421.5,304.68" style="stroke:#181818;stroke-width:1.0;"/></g><!--reverse link UC_PZ4 to RegisteredCustomer--><g id="link_UC_PZ4_RegisteredCustomer"><path d="M439.6332,221.3729 C464.4132,227.1529 485.05,234.6 507.1,248 C538.57,267.12 565.75,299.04 584.11,324.41 " fill="none" id="UC_PZ4-backto-RegisteredCustomer" style="stroke:#181818;stroke-width:1.0;"/><polygon fill="#181818" points="433.79,220.01,441.6461,225.9498,438.6593,221.1458,443.4633,218.159,433.79,220.01" style="stroke:#181818;stroke-width:1.0;"/></g><!--reverse link UC_PZ5 to RegisteredCustomer--><g id="link_UC_PZ5_RegisteredCustomer"><path d="M436.9686,139.9009 C463.2686,145.0409 485.46,153.22 507.1,170 C557.56,209.13 585.78,280.36 599.17,324.48 " fill="none" id="UC_PZ5-backto-RegisteredCustomer" style="stroke:#181818;stroke-width:1.0;"/><polygon fill="#181818" points="431.08,138.75,439.1457,144.402,435.9872,139.709,440.6801,136.5505,431.08,138.75" style="stroke:#181818;stroke-width:1.0;"/></g><!--reverse link UC_PZ6 to RegisteredCustomer--><g id="link_UC_PZ6_RegisteredCustomer"><path d="M440.1425,65.2405 C465.9425,70.1905 487.01,78.48 507.1,96 C575.35,155.51 598.12,265.87 605.57,324.33 " fill="none" id="UC_PZ6-backto-RegisteredCustomer" style="stroke:#181818;stroke-width:1.0;"/><polygon fill="#181818" points="434.25,64.11,442.3351,69.7342,439.1604,65.0521,443.8425,61.8775,434.25,64.11" style="stroke:#181818;stroke-width:1.0;"/></g></g></svg>